{"accessors" : [{"bufferView" : 0, "byteOffset" : 0, "componentType" : 5123, "count" : 4812, "type" : "SCALAR", "max" : [4811], "min" : [0]}, {"bufferView" : 1, "byteOffset" : 0, "componentType" : 5126, "count" : 4812, "type" : "VEC3", "max" : [1.809532642364502, 0.5339080095291138, 3.7653701305389404], "min" : [-1.80905020236969, -0.5142357349395752, 0.0006841139402240515], "name" : "POSITION"}, {"bufferView" : 1, "byteOffset" : 12, "componentType" : 5126, "count" : 4812, "type" : "VEC3", "max" : [0.9997854232788086, 0.9998929500579834, 0.9988745450973511], "min" : [-0.9997854232788086, -0.9986240863800049, -1.0000044107437134], "name" : "NORMAL"}, {"bufferView" : 1, "byteOffset" : 24, "componentType" : 5126, "count" : 4812, "type" : "VEC3", "max" : [1, 1, 1], "min" : [1, 1, 1], "name" : "COLOR_0"}, {"bufferView" : 1, "byteOffset" : 36, "componentType" : 5126, "count" : 4812, "type" : "VEC2", "max" : [0.9856139421463013, -0.016268271952867508], "min" : [0.00812220573425293, -0.9938103556632996], "name" : "TEXCOORD_0"}], "asset" : {"generator" : "Aspose.3D 23.7.0", "version" : "2.0"}, "buffers" : [{"uri" : "data:application/octet-stream;base64,", "byteLength" : 221360}], "bufferViews" : [{"buffer" : 0, "byteOffset" : 0, "byteLength" : 9624, "target" : 34963}, {"buffer" : 0, "byteOffset" : 9628, "byteLength" : 211728, "byteStride" : 44, "target" : 34962}], "materials" : [{"name" : "skin", "pbrMetallicRoughness" : {"baseColorFactor" : [0.800000011920929, 0.800000011920929, 0.800000011920929, 1], "metallicFactor" : 0, "roughnessFactor" : 0}, "emissiveFactor" : [0.800000011920929, 0.800000011920929, 0.800000011920929], "alphaMode" : "OPAQUE", "doubleSided" : false}], "meshes" : [{"primitives" : [{"attributes" : {"POSITION" : 1, "NORMAL" : 2, "COLOR_0" : 3, "TEXCOORD_0" : 4}, "indices" : 0, "material" : 0, "mode" : 4}], "name" : "characterMedium"}], "nodes" : [{"matrix" : [100, 0, 0, 0, 0, -1.6292067955264296E-05, -99.99999999999866, 0, 0, 99.99999999999866, -1.6292067955264296E-05, 0, 0, 0, 0, 1], "mesh" : 0, "name" : "characterMedium"}], "scene" : 0, "scenes" : [{"nodes" : [0]}]}