{
	"asset":{
		"generator":"Khronos glTF Blender I/O v3.6.27",
		"version":"2.0"
	},
	"scene":0,
	"scenes":[
		{
			"name":"Scene",
			"nodes":[
				0,
				1,
				2,
				3,
				4,
				5
			]
		}
	],
	"nodes":[
		{
			"mesh":0,
			"name":"d4"
		},
		{
			"mesh":1,
			"name":"d8",
			"scale":[
				1,
				1.0000033378601074,
				1
			]
		},
		{
			"mesh":2,
			"name":"d10",
			"scale":[
				1,
				0.9999978542327881,
				1
			]
		},
		{
			"mesh":3,
			"name":"d12",
			"scale":[
				1,
				1.0000026226043701,
				1
			]
		},
		{
			"mesh":4,
			"name":"d20"
		},
		{
			"mesh":5,
			"name":"d6"
		}
	],
	"materials":[
		{
			"doubleSided":true,
			"name":"d4",
			"pbrMetallicRoughness":{
				"baseColorTexture":{
					"index":0
				},
				"metallicFactor":0,
				"roughnessFactor":0.5
			}
		},
		{
			"doubleSided":true,
			"name":"d8",
			"pbrMetallicRoughness":{
				"baseColorTexture":{
					"index":1
				},
				"metallicFactor":0,
				"roughnessFactor":0.5
			}
		},
		{
			"doubleSided":true,
			"name":"d10",
			"pbrMetallicRoughness":{
				"baseColorTexture":{
					"index":2
				},
				"metallicFactor":0,
				"roughnessFactor":0.5
			}
		},
		{
			"doubleSided":true,
			"name":"d12",
			"pbrMetallicRoughness":{
				"baseColorTexture":{
					"index":3
				},
				"metallicFactor":0,
				"roughnessFactor":0.5
			}
		},
		{
			"doubleSided":true,
			"name":"d20",
			"pbrMetallicRoughness":{
				"baseColorTexture":{
					"index":4
				},
				"metallicFactor":0,
				"roughnessFactor":0.5
			}
		},
		{
			"doubleSided":true,
			"name":"d6",
			"pbrMetallicRoughness":{
				"baseColorTexture":{
					"index":5
				},
				"metallicFactor":0,
				"roughnessFactor":0.5
			}
		}
	],
	"meshes":[
		{
			"name":"Dice-PartBody",
			"primitives":[
				{
					"attributes":{
						"POSITION":0,
						"NORMAL":1,
						"TEXCOORD_0":2
					},
					"indices":3,
					"material":0
				}
			]
		},
		{
			"name":"Cube.001",
			"primitives":[
				{
					"attributes":{
						"POSITION":4,
						"NORMAL":5,
						"TEXCOORD_0":6
					},
					"indices":7,
					"material":1
				}
			]
		},
		{
			"name":"Circle",
			"primitives":[
				{
					"attributes":{
						"POSITION":8,
						"NORMAL":9,
						"TEXCOORD_0":10
					},
					"indices":11,
					"material":2
				}
			]
		},
		{
			"name":"Icosphere",
			"primitives":[
				{
					"attributes":{
						"POSITION":12,
						"NORMAL":13,
						"TEXCOORD_0":14
					},
					"indices":15,
					"material":3
				}
			]
		},
		{
			"name":"Solid",
			"primitives":[
				{
					"attributes":{
						"POSITION":16,
						"NORMAL":17,
						"TEXCOORD_0":18
					},
					"indices":19,
					"material":4
				}
			]
		},
		{
			"name":"Cube.002",
			"primitives":[
				{
					"attributes":{
						"POSITION":20,
						"NORMAL":21,
						"TEXCOORD_0":22
					},
					"indices":23,
					"material":5
				}
			]
		}
	],
	"textures":[
		{
			"sampler":0,
			"source":0
		},
		{
			"sampler":0,
			"source":1
		},
		{
			"sampler":0,
			"source":2
		},
		{
			"sampler":0,
			"source":3
		},
		{
			"sampler":0,
			"source":4
		},
		{
			"sampler":0,
			"source":5
		}
	],
	"images":[
		{
			"bufferView":4,
			"mimeType":"image/png",
			"name":"d4png"
		},
		{
			"bufferView":9,
			"mimeType":"image/png",
			"name":"d8"
		},
		{
			"bufferView":14,
			"mimeType":"image/png",
			"name":"d10"
		},
		{
			"bufferView":19,
			"mimeType":"image/png",
			"name":"d12"
		},
		{
			"bufferView":24,
			"mimeType":"image/png",
			"name":"d20"
		},
		{
			"bufferView":29,
			"mimeType":"image/png",
			"name":"d6"
		}
	],
	"accessors":[
		{
			"bufferView":0,
			"componentType":5126,
			"count":12,
			"max":[
				1,
				0.8162500858306885,
				0.5773502588272095
			],
			"min":[
				-1,
				-0.8162499070167542,
				-1.1547003984451294
			],
			"type":"VEC3"
		},
		{
			"bufferView":1,
			"componentType":5126,
			"count":12,
			"type":"VEC3"
		},
		{
			"bufferView":2,
			"componentType":5126,
			"count":12,
			"type":"VEC2"
		},
		{
			"bufferView":3,
			"componentType":5123,
			"count":12,
			"type":"SCALAR"
		},
		{
			"bufferView":5,
			"componentType":5126,
			"count":24,
			"max":[
				0.9151383638381958,
				0.646696925163269,
				0.7918754816055298
			],
			"min":[
				-0.9151383638381958,
				-0.6466988325119019,
				-0.7918754816055298
			],
			"type":"VEC3"
		},
		{
			"bufferView":6,
			"componentType":5126,
			"count":24,
			"type":"VEC3"
		},
		{
			"bufferView":7,
			"componentType":5126,
			"count":24,
			"type":"VEC2"
		},
		{
			"bufferView":8,
			"componentType":5123,
			"count":24,
			"type":"SCALAR"
		},
		{
			"bufferView":10,
			"componentType":5126,
			"count":134,
			"max":[
				0.9102879762649536,
				0.7273215651512146,
				0.8771547079086304
			],
			"min":[
				-0.8895164132118225,
				-0.7273215651512146,
				-0.9330824017524719
			],
			"type":"VEC3"
		},
		{
			"bufferView":11,
			"componentType":5126,
			"count":134,
			"type":"VEC3"
		},
		{
			"bufferView":12,
			"componentType":5126,
			"count":134,
			"type":"VEC2"
		},
		{
			"bufferView":13,
			"componentType":5123,
			"count":246,
			"type":"SCALAR"
		},
		{
			"bufferView":15,
			"componentType":5126,
			"count":60,
			"max":[
				0.9974771738052368,
				0.8069819211959839,
				0.9486498832702637
			],
			"min":[
				-0.9974772334098816,
				-0.8069838285446167,
				-0.9486498832702637
			],
			"type":"VEC3"
		},
		{
			"bufferView":16,
			"componentType":5126,
			"count":60,
			"type":"VEC3"
		},
		{
			"bufferView":17,
			"componentType":5126,
			"count":60,
			"type":"VEC2"
		},
		{
			"bufferView":18,
			"componentType":5123,
			"count":108,
			"type":"SCALAR"
		},
		{
			"bufferView":20,
			"componentType":5126,
			"count":60,
			"max":[
				1.03900146484375,
				0.840567946434021,
				0.8998016715049744
			],
			"min":[
				-1.03900146484375,
				-0.8405717611312866,
				-0.8998016715049744
			],
			"type":"VEC3"
		},
		{
			"bufferView":21,
			"componentType":5126,
			"count":60,
			"type":"VEC3"
		},
		{
			"bufferView":22,
			"componentType":5126,
			"count":60,
			"type":"VEC2"
		},
		{
			"bufferView":23,
			"componentType":5123,
			"count":60,
			"type":"SCALAR"
		},
		{
			"bufferView":25,
			"componentType":5126,
			"count":24,
			"max":[
				0.75,
				0.7520084381103516,
				0.75
			],
			"min":[
				-0.75,
				-0.7479915618896484,
				-0.75
			],
			"type":"VEC3"
		},
		{
			"bufferView":26,
			"componentType":5126,
			"count":24,
			"type":"VEC3"
		},
		{
			"bufferView":27,
			"componentType":5126,
			"count":24,
			"type":"VEC2"
		},
		{
			"bufferView":28,
			"componentType":5123,
			"count":36,
			"type":"SCALAR"
		}
	],
	"bufferViews":[
		{
			"buffer":0,
			"byteLength":144,
			"byteOffset":0,
			"target":34962
		},
		{
			"buffer":0,
			"byteLength":144,
			"byteOffset":144,
			"target":34962
		},
		{
			"buffer":0,
			"byteLength":96,
			"byteOffset":288,
			"target":34962
		},
		{
			"buffer":0,
			"byteLength":24,
			"byteOffset":384,
			"target":34963
		},
		{
			"buffer":0,
			"byteLength":165615,
			"byteOffset":408
		},
		{
			"buffer":0,
			"byteLength":288,
			"byteOffset":166024,
			"target":34962
		},
		{
			"buffer":0,
			"byteLength":288,
			"byteOffset":166312,
			"target":34962
		},
		{
			"buffer":0,
			"byteLength":192,
			"byteOffset":166600,
			"target":34962
		},
		{
			"buffer":0,
			"byteLength":48,
			"byteOffset":166792,
			"target":34963
		},
		{
			"buffer":0,
			"byteLength":365177,
			"byteOffset":166840
		},
		{
			"buffer":0,
			"byteLength":1608,
			"byteOffset":532020,
			"target":34962
		},
		{
			"buffer":0,
			"byteLength":1608,
			"byteOffset":533628,
			"target":34962
		},
		{
			"buffer":0,
			"byteLength":1072,
			"byteOffset":535236,
			"target":34962
		},
		{
			"buffer":0,
			"byteLength":492,
			"byteOffset":536308,
			"target":34963
		},
		{
			"buffer":0,
			"byteLength":263068,
			"byteOffset":536800
		},
		{
			"buffer":0,
			"byteLength":720,
			"byteOffset":799868,
			"target":34962
		},
		{
			"buffer":0,
			"byteLength":720,
			"byteOffset":800588,
			"target":34962
		},
		{
			"buffer":0,
			"byteLength":480,
			"byteOffset":801308,
			"target":34962
		},
		{
			"buffer":0,
			"byteLength":216,
			"byteOffset":801788,
			"target":34963
		},
		{
			"buffer":0,
			"byteLength":63556,
			"byteOffset":802004
		},
		{
			"buffer":0,
			"byteLength":720,
			"byteOffset":865560,
			"target":34962
		},
		{
			"buffer":0,
			"byteLength":720,
			"byteOffset":866280,
			"target":34962
		},
		{
			"buffer":0,
			"byteLength":480,
			"byteOffset":867000,
			"target":34962
		},
		{
			"buffer":0,
			"byteLength":120,
			"byteOffset":867480,
			"target":34963
		},
		{
			"buffer":0,
			"byteLength":174809,
			"byteOffset":867600
		},
		{
			"buffer":0,
			"byteLength":288,
			"byteOffset":1042412,
			"target":34962
		},
		{
			"buffer":0,
			"byteLength":288,
			"byteOffset":1042700,
			"target":34962
		},
		{
			"buffer":0,
			"byteLength":192,
			"byteOffset":1042988,
			"target":34962
		},
		{
			"buffer":0,
			"byteLength":72,
			"byteOffset":1043180,
			"target":34963
		},
		{
			"buffer":0,
			"byteLength":846166,
			"byteOffset":1043252
		}
	],
	"samplers":[
		{
			"magFilter":9729,
			"minFilter":9987
		}
	],
	"buffers":[
		{
			"byteLength":1889420,
			"uri":"data:application/octet-stream;base64,"
		}
	]
}
